# xmcd
#
# Track frame offsets: 
#        180
#        15079
#        28479
#        43650
#        56621
#        71567
#        83811
#        97368
#        112059
#        123903
#        135377
#        147227
#        159420
#        171106
#        185537
#        195209
#        207373
#        219570
#        231138
#        243304
#        257025
#        269949
#        290214
#        305936
#
# Disc length: 4226 seconds
#
# Revision: 0
# Processed by: cddbd v1.5.2PL0 Copyright (c) Steve Scherf et al.
# Submitted via: ExactAudioCopy v0.95b4
#
DISCID=72108018
DTITLE=Various Artist - Blues Generations Vol. 1 [CD 3]
DYEAR=2006
DGENRE=Blues
TTITLE0=Bessie Smith - Aggravatin' Papa
TTITLE1=Bessie Smith - Dying Gambler's Blues
TTITLE2=John Hurt - Frankie And Johnny
TTITLE3=Big Bill Broonzy - How You Want It Done
TTITLE4=Big Bill Broonzy - Good Jelly
TTITLE5=Blind Boy Fuller And Sonny Terry - New Love Blues
TTITLE6=Blind Boy Fuller - Brownskin Sugar Plum
TTITLE7=Sonny Boy Williamsson - Doggin' My Love Around
TTITLE8=Brownie Mc Ghee - I'm Callin' Daisy
TTITLE9=John Lee Williamson - Black Panter Blues
TTITLE10=Big Joe Turner - Blues On Central Avenue
TTITLE11=Big Joe Williams - Peach Orchad Mama
TTITLE12=Brownie Mc Ghee - Dealing With The Devil
TTITLE13=Arthur Big Boy Crudup - Chicago Blues
TTITLE14=Lightnin' Hopkins - I Feel So Bad
TTITLE15=Big Joe Turner - I Got My Discharge Papers
TTITLE16=Muddy Waters - I Can't Be Satisfied
TTITLE17=Lightnin' Hopkins - Honey Babe
TTITLE18=B.B. King - Miss Martha King
TTITLE19=T-Bone Walker - Call It Stormy Monday But Tuesday Is Just As 
TTITLE19=Bad
TTITLE20=B.B. King - Walkin' And Cryin'
TTITLE21=John Lee Hooker - Baby Baby
TTITLE22=John Lee Hooker - Hey Baby
TTITLE23=John Lee Hooker - Hard Headed Woman
EXTD=
EXTT0=
EXTT1=
EXTT2=
EXTT3=
EXTT4=
EXTT5=
EXTT6=
EXTT7=
EXTT8=
EXTT9=
EXTT10=
EXTT11=
EXTT12=
EXTT13=
EXTT14=
EXTT15=
EXTT16=
EXTT17=
EXTT18=
EXTT19=
EXTT20=
EXTT21=
EXTT22=
EXTT23=
PLAYORDER=
